<svg width="16" height="16" viewBox="0 0 16 16" fill="none" xmlns="http://www.w3.org/2000/svg">
<path d="M6.23597 14C6.70606 14.4149 7.32355 14.6666 7.99985 14.6666C8.67615 14.6666 9.29365 14.4149 9.76373 14M11.9999 5.33331C11.9999 4.27245 11.5784 3.25503 10.8283 2.50489C10.0781 1.75474 9.06072 1.33331 7.99985 1.33331C6.93898 1.33331 5.92157 1.75474 5.17142 2.50489C4.42128 3.25503 3.99985 4.27245 3.99985 5.33331C3.99985 7.39344 3.48016 8.80395 2.89963 9.73692C2.40993 10.5239 2.16509 10.9174 2.17407 11.0272C2.18401 11.1487 2.20976 11.195 2.3077 11.2677C2.39616 11.3333 2.79491 11.3333 3.59242 11.3333H12.4073C13.2048 11.3333 13.6035 11.3333 13.692 11.2677C13.7899 11.195 13.8157 11.1487 13.8256 11.0272C13.8346 10.9174 13.5898 10.5239 13.1001 9.73692C12.5195 8.80395 11.9999 7.39344 11.9999 5.33331Z" stroke="#BEDBB0" stroke-width="1.5" stroke-linecap="round" stroke-linejoin="round"/>
</svg>
