<svg width="64" height="16" viewBox="0 0 64 16" fill="none" xmlns="http://www.w3.org/2000/svg">
<g clip-path="url(#clip0_4566_2401)">
<path d="M2.2251 4.66671C3.3778 2.67404 5.53228 1.33337 7.99988 1.33337C11.6818 1.33337 14.6666 4.31814 14.6666 8.00004C14.6666 11.6819 11.6818 14.6667 7.99988 14.6667C5.53228 14.6667 3.3778 13.326 2.2251 11.3334" stroke="white" stroke-opacity="0.5" stroke-width="1.3" stroke-linecap="round" stroke-linejoin="round"/>
<path d="M8 10.6667L10.6667 8.00004L8 5.33337" stroke="white" stroke-opacity="0.5" stroke-width="1.3" stroke-linecap="round" stroke-linejoin="round"/>
<path d="M1.3335 8L10.6668 8" stroke="white" stroke-opacity="0.5" stroke-width="1.3" stroke-linecap="round" stroke-linejoin="round"/>
</g>
<path d="M25.6665 14.3334L29.366 12.9105C29.6026 12.8195 29.721 12.774 29.8317 12.7146C29.93 12.6618 30.0237 12.6009 30.1119 12.5324C30.2111 12.4554 30.3008 12.3658 30.48 12.1865L37.9999 4.66671C38.7362 3.93033 38.7362 2.73642 37.9999 2.00004C37.2635 1.26366 36.0696 1.26366 35.3332 2.00004L27.8134 9.51985C27.6341 9.69912 27.5445 9.78876 27.4674 9.88801C27.399 9.97617 27.3381 10.0699 27.2853 10.1682C27.2259 10.2789 27.1804 10.3972 27.0894 10.6339L25.6665 14.3334ZM25.6665 14.3334L27.0386 10.766C27.1368 10.5107 27.1859 10.3831 27.2701 10.3246C27.3437 10.2735 27.4347 10.2542 27.5227 10.271C27.6234 10.2902 27.7201 10.3869 27.9135 10.5803L29.4196 12.0864C29.613 12.2798 29.7097 12.3765 29.7289 12.4772C29.7457 12.5652 29.7264 12.6562 29.6753 12.7298C29.6168 12.814 29.4892 12.8631 29.2339 12.9613L25.6665 14.3334Z" stroke="white" stroke-opacity="0.5" stroke-width="1.3" stroke-linecap="round" stroke-linejoin="round"/>
<path d="M54 2H58" stroke="white" stroke-opacity="0.5" stroke-width="1.3" stroke-linecap="round" stroke-linejoin="round"/>
<path d="M50 4H62" stroke="white" stroke-opacity="0.5" stroke-width="1.3" stroke-linecap="round" stroke-linejoin="round"/>
<path d="M51.3335 4L51.7341 10.0089C51.8085 11.1245 51.8456 11.6823 52.028 12.1304C52.3589 12.9441 53.0299 13.5718 53.8637 13.8479C54.323 14 54.8821 14 56.0002 14V14C57.1183 14 57.6773 14 58.1366 13.8479C58.9704 13.5718 59.6414 12.9441 59.9724 12.1304C60.1547 11.6823 60.1919 11.1245 60.2662 10.0089L60.6668 4" stroke="white" stroke-opacity="0.5" stroke-width="1.3" stroke-linecap="round" stroke-linejoin="round"/>
<defs>
<clipPath id="clip0_4566_2401">
<rect width="16" height="16" fill="white"/>
</clipPath>
</defs>
</svg>
